<mxfile host="app.diagrams.net" modified="2024-03-09T11:01:35.775Z" agent="Mozilla/5.0 (Windows NT 10.0; Win64; x64) AppleWebKit/537.36 (KHTML, like Gecko) Chrome/122.0.0.0 Safari/537.36 Edg/122.0.0.0" etag="N3xezjch2hoyCEo9cByF" version="24.0.3" type="github">
  <diagram name="第 1 页" id="jjTThLfJETLN2Wc0pCib">
    <mxGraphModel dx="1626" dy="759" grid="1" gridSize="10" guides="1" tooltips="1" connect="1" arrows="1" fold="1" page="1" pageScale="1" pageWidth="827" pageHeight="1169" math="0" shadow="0">
      <root>
        <mxCell id="0" />
        <mxCell id="1" parent="0" />
        <mxCell id="76n70dwOzIyTTWtpeyOt-1" value="&lt;span style=&quot;font-size: 30px;&quot;&gt;&lt;b&gt;閒置電腦統計&lt;/b&gt;&lt;/span&gt;" style="rounded=0;whiteSpace=wrap;html=1;" parent="1" vertex="1">
          <mxGeometry x="290" y="230" width="210" height="60" as="geometry" />
        </mxCell>
        <mxCell id="76n70dwOzIyTTWtpeyOt-2" value="&lt;b&gt;&lt;font style=&quot;font-size: 30px;&quot;&gt;閒置固資收回&lt;/font&gt;&lt;/b&gt;" style="text;html=1;align=center;verticalAlign=middle;whiteSpace=wrap;rounded=0;" parent="1" vertex="1">
          <mxGeometry x="240" y="60" width="290" height="30" as="geometry" />
        </mxCell>
        <mxCell id="76n70dwOzIyTTWtpeyOt-3" value="&lt;span style=&quot;font-size: 30px;&quot;&gt;&lt;b&gt;通知各部門&lt;/b&gt;&lt;/span&gt;" style="rounded=0;whiteSpace=wrap;html=1;" parent="1" vertex="1">
          <mxGeometry x="290" y="140" width="210" height="60" as="geometry" />
        </mxCell>
        <mxCell id="76n70dwOzIyTTWtpeyOt-4" value="&lt;span style=&quot;font-size: 30px;&quot;&gt;&lt;b&gt;單位申請報廢&lt;/b&gt;&lt;/span&gt;" style="rounded=0;whiteSpace=wrap;html=1;" parent="1" vertex="1">
          <mxGeometry x="490" y="570" width="210" height="60" as="geometry" />
        </mxCell>
        <mxCell id="76n70dwOzIyTTWtpeyOt-5" value="&lt;span style=&quot;font-size: 30px;&quot;&gt;&lt;b&gt;填寫BPM收回申請&lt;/b&gt;&lt;/span&gt;" style="rounded=0;whiteSpace=wrap;html=1;" parent="1" vertex="1">
          <mxGeometry x="290" y="330" width="210" height="60" as="geometry" />
        </mxCell>
        <mxCell id="76n70dwOzIyTTWtpeyOt-6" value="&lt;span style=&quot;border: 0px solid rgb(227, 227, 227); box-sizing: border-box; --tw-border-spacing-x: 0; --tw-border-spacing-y: 0; --tw-translate-x: 0; --tw-translate-y: 0; --tw-rotate: 0; --tw-skew-x: 0; --tw-skew-y: 0; --tw-scale-x: 1; --tw-scale-y: 1; --tw-pan-x: ; --tw-pan-y: ; --tw-pinch-zoom: ; --tw-scroll-snap-strictness: proximity; --tw-gradient-from-position: ; --tw-gradient-via-position: ; --tw-gradient-to-position: ; --tw-ordinal: ; --tw-slashed-zero: ; --tw-numeric-figure: ; --tw-numeric-spacing: ; --tw-numeric-fraction: ; --tw-ring-inset: ; --tw-ring-offset-width: 0px; --tw-ring-offset-color: #fff; --tw-ring-color: rgba(69,89,164,.5); --tw-ring-offset-shadow: 0 0 transparent; --tw-ring-shadow: 0 0 transparent; --tw-shadow: 0 0 transparent; --tw-shadow-colored: 0 0 transparent; --tw-blur: ; --tw-brightness: ; --tw-contrast: ; --tw-grayscale: ; --tw-hue-rotate: ; --tw-invert: ; --tw-saturate: ; --tw-sepia: ; --tw-drop-shadow: ; --tw-backdrop-blur: ; --tw-backdrop-brightness: ; --tw-backdrop-contrast: ; --tw-backdrop-grayscale: ; --tw-backdrop-hue-rotate: ; --tw-backdrop-invert: ; --tw-backdrop-opacity: ; --tw-backdrop-saturate: ; --tw-backdrop-sepia: ; font-weight: 600; color: rgb(13, 13, 13); font-family: Söhne, ui-sans-serif, system-ui, -apple-system, &amp;quot;Segoe UI&amp;quot;, Roboto, Ubuntu, Cantarell, &amp;quot;Noto Sans&amp;quot;, sans-serif, &amp;quot;Helvetica Neue&amp;quot;, Arial, &amp;quot;Apple Color Emoji&amp;quot;, &amp;quot;Segoe UI Emoji&amp;quot;, &amp;quot;Segoe UI Symbol&amp;quot;, &amp;quot;Noto Color Emoji&amp;quot;; font-size: 16px; text-align: left; white-space-collapse: preserve; background-color: rgb(255, 255, 255);&quot;&gt;評估電腦狀況&lt;/span&gt;" style="rhombus;whiteSpace=wrap;html=1;" parent="1" vertex="1">
          <mxGeometry x="345" y="440" width="80" height="80" as="geometry" />
        </mxCell>
        <mxCell id="76n70dwOzIyTTWtpeyOt-8" value="&lt;span style=&quot;font-size: 30px;&quot;&gt;&lt;b&gt;測試硬碟狀況&lt;/b&gt;&lt;/span&gt;" style="rounded=0;whiteSpace=wrap;html=1;" parent="1" vertex="1">
          <mxGeometry x="90" y="680" width="210" height="60" as="geometry" />
        </mxCell>
        <mxCell id="76n70dwOzIyTTWtpeyOt-9" value="&lt;span style=&quot;font-size: 30px;&quot;&gt;&lt;b&gt;硬碟資料&lt;br&gt;刪除或移轉&lt;/b&gt;&lt;/span&gt;" style="rounded=0;whiteSpace=wrap;html=1;" parent="1" vertex="1">
          <mxGeometry x="90" y="580" width="210" height="60" as="geometry" />
        </mxCell>
        <mxCell id="76n70dwOzIyTTWtpeyOt-11" value="&lt;span style=&quot;font-size: 30px;&quot;&gt;&lt;b&gt;重新安裝OS&lt;/b&gt;&lt;/span&gt;" style="rounded=0;whiteSpace=wrap;html=1;" parent="1" vertex="1">
          <mxGeometry x="90" y="780" width="210" height="60" as="geometry" />
        </mxCell>
        <mxCell id="76n70dwOzIyTTWtpeyOt-12" value="&lt;span style=&quot;font-size: 30px;&quot;&gt;&lt;b&gt;固資移轉&lt;/b&gt;&lt;/span&gt;" style="rounded=0;whiteSpace=wrap;html=1;" parent="1" vertex="1">
          <mxGeometry x="90" y="880" width="210" height="60" as="geometry" />
        </mxCell>
        <mxCell id="76n70dwOzIyTTWtpeyOt-13" value="&lt;span style=&quot;font-size: 30px;&quot;&gt;&lt;b&gt;電腦收回&lt;/b&gt;&lt;/span&gt;" style="rounded=0;whiteSpace=wrap;html=1;" parent="1" vertex="1">
          <mxGeometry x="490" y="680" width="210" height="60" as="geometry" />
        </mxCell>
      </root>
    </mxGraphModel>
  </diagram>
</mxfile>
